<svg width="25" height="24" viewBox="0 0 25 24" fill="none" xmlns="http://www.w3.org/2000/svg">
<g id="Inredning, Mo&#204;&#136;bler &#38; Design online - NordicNest.se-4" clip-path="url(#clip0_18_1831)">
<path id="Vector" d="M10.25 9.75002L15.5532 5.01227C16.3761 4.20332 17.4837 3.75 18.6376 3.75C19.7915 3.75 20.8992 4.20332 21.722 5.01227C22.1264 5.41011 22.4476 5.88447 22.6669 6.4077C22.8861 6.93094 22.9991 7.49258 22.9991 8.05989C22.9991 8.62721 22.8861 9.18885 22.6669 9.71208C22.4476 10.2353 22.1264 10.7097 21.722 11.1075L12.4692 20.25L3.27499 11.1075C2.87056 10.7097 2.54935 10.2353 2.3301 9.71208C2.11084 9.18885 1.99792 8.62721 1.99792 8.05989C1.99792 7.49258 2.11084 6.93094 2.3301 6.4077C2.54935 5.88447 2.87056 5.41011 3.27499 5.01227C4.09781 4.20332 5.20549 3.75 6.35937 3.75C7.51324 3.75 8.62093 4.20332 9.44374 5.01227C9.44374 5.01227 12.9365 7.89977 14.75 9.75002" stroke="black" stroke-width="2" stroke-miterlimit="10" stroke-linecap="square"/>
</g>
<defs>
<clipPath id="clip0_18_1831">
<rect width="24" height="24" fill="white" transform="translate(0.5)"/>
</clipPath>
</defs>
</svg>
