<svg xmlns="http://www.w3.org/2000/svg" viewBox="0 0 114.24 48">
    <path d="M87.093 48V29.814h-8.185V27.13h19.078v2.684h-8.215V48Zm-17.823-.239a6.4 6.4 0 0 1-1.92-.8 6.1 6.1 0 0 1-1.637-1.535 7 7 0 0 1-1.115-2.4l2.351-1.253a4.9 4.9 0 0 0 1.458 2.639 4.1 4.1 0 0 0 2.8.91 3.93 3.93 0 0 0 2.559-.776 2.72 2.72 0 0 0 .952-2.236 2.8 2.8 0 0 0-.312-1.386 3 3 0 0 0-.834-.939 4.6 4.6 0 0 0-1.175-.626q-.654-.238-1.369-.478-1.012-.328-2.112-.759A8.4 8.4 0 0 1 66.9 37a5.5 5.5 0 0 1-1.488-1.714 5.06 5.06 0 0 1-.581-2.519 5.5 5.5 0 0 1 .506-2.4 5.15 5.15 0 0 1 1.369-1.774 6 6 0 0 1 2.012-1.093 7.7 7.7 0 0 1 2.4-.372 6.5 6.5 0 0 1 4.167 1.342 7.07 7.07 0 0 1 2.381 3.667l-2.531 1.013a4.5 4.5 0 0 0-1.517-2.563 4.17 4.17 0 0 0-2.559-.775 3.67 3.67 0 0 0-2.649.864 2.83 2.83 0 0 0-.893 2.117 2.5 2.5 0 0 0 .312 1.3 3 3 0 0 0 .863.91 5.8 5.8 0 0 0 1.31.67q.759.284 1.622.581 1.221.417 2.277.88a7 7 0 0 1 1.83 1.133 4.8 4.8 0 0 1 1.221 1.625 5.5 5.5 0 0 1 .446 2.326 6.1 6.1 0 0 1-.5 2.578 5.2 5.2 0 0 1-1.355 1.8 5.5 5.5 0 0 1-1.965 1.058 7.9 7.9 0 0 1-2.345.346 8.6 8.6 0 0 1-1.964-.239ZM38.822 48l-13.3-16.547V48H22.84V27.13h2.678l13.3 16.577V27.13H41.5V48Zm8.905 0V27.13h12.8v2.683H50.406v6.411h10.119v2.683H50.406v6.41h10.119V48Zm14.54-26.453-6.059-7.533h-5.8v6.857h-2.682V0h8.007a7.4 7.4 0 0 1 2.8.522 6.7 6.7 0 0 1 2.217 1.461A6.9 6.9 0 0 1 62.221 4.2a7.2 7.2 0 0 1 .536 2.8 7 7 0 0 1-1 3.757 6.7 6.7 0 0 1-2.693 2.474l5.331 6.6-2.129 1.712ZM50.406 11.33h3.66L52.22 9.022l2.08-1.669 2.976 3.708A4.2 4.2 0 0 0 59.3 9.54a4.23 4.23 0 0 0 .774-2.534 4.35 4.35 0 0 0-.343-1.744 4.3 4.3 0 0 0-.931-1.371A4.2 4.2 0 0 0 57.415 3a4.5 4.5 0 0 0-1.681-.313h-5.328Zm52.406 8.75a10 10 0 0 1-3.259-2.191 10.4 10.4 0 0 1-2.188-3.309 10.6 10.6 0 0 1-.8-4.145 10.6 10.6 0 0 1 .8-4.144 10.4 10.4 0 0 1 2.188-3.309 9.9 9.9 0 0 1 3.273-2.191A10.5 10.5 0 0 1 106.918 0a9.9 9.9 0 0 1 4.048.805 12 12 0 0 1 3.274 2.146l-1.22 2.534a10 10 0 0 0-.9-.833 10.5 10.5 0 0 0-1.768-1.165 7.54 7.54 0 0 0-3.556-.8 7.8 7.8 0 0 0-2.991.567 7.2 7.2 0 0 0-2.4 1.579 7.3 7.3 0 0 0-1.591 2.445 8.35 8.35 0 0 0-.581 3.16 8.35 8.35 0 0 0 .581 3.161 7.3 7.3 0 0 0 1.591 2.444 7.2 7.2 0 0 0 2.4 1.58 7.8 7.8 0 0 0 2.991.567 9.6 9.6 0 0 0 1.859-.179 8.5 8.5 0 0 0 1.98-.686l.476 2.684a17 17 0 0 1-2.262.656 10.37 10.37 0 0 1-6.042-.581Zm-13.054.791V0h2.678v20.87Zm-21.665 0V0h7.143a10.7 10.7 0 0 1 4.107.79 10.2 10.2 0 0 1 3.3 2.176 9.9 9.9 0 0 1 2.188 3.294 10.9 10.9 0 0 1 .789 4.174 10.9 10.9 0 0 1-.789 4.174 10 10 0 0 1-2.185 3.292 10.2 10.2 0 0 1-3.3 2.176 10.7 10.7 0 0 1-4.107.79Zm2.678-2.684h4.464a8.3 8.3 0 0 0 3.081-.566 7.2 7.2 0 0 0 2.44-1.595 7.4 7.4 0 0 0 1.607-2.46 8.3 8.3 0 0 0 .581-3.13 8.2 8.2 0 0 0-.581-3.116 7.26 7.26 0 0 0-4.047-4.055 8.1 8.1 0 0 0-3.081-.581h-4.464ZM15.982 20.87 2.678 4.323V20.87H0V0h2.678l13.3 16.577V0h2.678v20.87Zm13.074-.791a9.96 9.96 0 0 1-5.491-5.5 10.8 10.8 0 0 1-.789-4.145 10.8 10.8 0 0 1 .789-4.144 9.95 9.95 0 0 1 5.491-5.5A10.7 10.7 0 0 1 33.194 0a10.85 10.85 0 0 1 4.152.791 9.9 9.9 0 0 1 3.3 2.19 10.2 10.2 0 0 1 2.173 3.31 10.8 10.8 0 0 1 .789 4.144 10.8 10.8 0 0 1-.789 4.145 10.2 10.2 0 0 1-2.173 3.309 9.9 9.9 0 0 1-3.3 2.191 10.8 10.8 0 0 1-4.152.79 10.7 10.7 0 0 1-4.138-.791M30.1 3.264a7.19 7.19 0 0 0-4.063 4.07 8.2 8.2 0 0 0-.58 3.1 8.2 8.2 0 0 0 .58 3.1A7.18 7.18 0 0 0 30.1 17.6a8.53 8.53 0 0 0 6.191 0 7.18 7.18 0 0 0 4.063-4.069 8.2 8.2 0 0 0 .581-3.1 8.2 8.2 0 0 0-.581-3.1 7.19 7.19 0 0 0-4.063-4.07 8.53 8.53 0 0 0-6.191 0Z"
    ></path>
</svg>